<svg id="Layer_1" data-name="Layer 1" xmlns="http://www.w3.org/2000/svg" viewBox="0 0 332.33 285.89"><defs><style>.cls-1{fill:#00a9ff;}</style></defs><title>Omega_Blue</title><path class="cls-1" d="M98.64,249.83c-.28.15-1.29.22-.91.45h3.63C101.51,250,100,249.93,98.64,249.83Z"/><path class="cls-1" d="M127.05,171.07a50.05,50.05,0,0,1-6.1-9.76c-.87-1.78-1.67-3.66-2.42-5.59s-1.46-4-2.07-5.93a97.47,97.47,0,0,1-4.19-25.13c-.3-1.81-.62-3.08-1.13-3.24,0,1.29,0,2.83-.23,2.45a111.41,111.41,0,0,0,3.66,23.45,109.13,109.13,0,0,0,4.06,12.08,67.79,67.79,0,0,0,5.61,11,15.33,15.33,0,0,1,2.42,2.74c1.84,2.29,1.55,2.7,4,5.09.59-.25-.93-1.92-2.18-3.71S126.16,170.94,127.05,171.07Z"/><path class="cls-1" d="M180.47,51.37c-.68-.27-1.54-.52-2-.76.21.41,1.29.83,3.11,1.48C181.7,51.92,181.16,51.66,180.47,51.37Z"/><path class="cls-1" d="M187.66,190l-1.7,1.16c-.31.38,1.06-.4,2.57-1.35.76-.53,1.56-.86,2.22-1.24a11.58,11.58,0,0,0,1.34-.84c-2.11,1.1-.88.38.25-.29a3.47,3.47,0,0,0,.89-.62h-.17l-1.15.58c.17,0-.89.62-2.2,1.31A16.79,16.79,0,0,0,187.66,190Z"/><path class="cls-1" d="M237.82,258.32c2.39,0,3-.15,2.72-.45C238.16,257.84,237.57,258,237.82,258.32Z"/><path class="cls-1" d="M270.16,157.11A92.87,92.87,0,0,1,252.66,184a101.64,101.64,0,0,1-12,11L238,197c-.56.41-1.1.78-1.64,1.16-1.09.73-2.16,1.42-3.21,2l-1.11.65a40.78,40.78,0,0,1-5.6,2.92,8.87,8.87,0,0,0-1.64.72,2.29,2.29,0,0,0-.9,1.68c0,.67-.08,1.36-.12,2.05a2.81,2.81,0,0,0,.05,1,1,1,0,0,0,.72.66,48.47,48.47,0,0,0,8.17-.11,1.65,1.65,0,0,0,1.37.17,7.5,7.5,0,0,1,2.41,0c.61-.25,1.63-.66,1.18-.81,0-.13-.3-.17-.6-.21a31.47,31.47,0,0,1-3.5.22,32.13,32.13,0,0,0-3.39.21l-1.8-.27-.88-.12a.88.88,0,0,1-.75-.53,2.32,2.32,0,0,1,0-1.11l.14-1.11a2.52,2.52,0,0,1,.81-1.95,9.45,9.45,0,0,1,2-.82c.65-.25,1.28-.51,1.9-.78a36.64,36.64,0,0,0,3.68-1.91,40.31,40.31,0,0,0,3.62-2.45c.21-.18,2.29-1.72,3.74-2.91s3.09-2.57,4.6-4a103.86,103.86,0,0,0,16.85-19.74c.83-1.65,1.85-3.65,3.13-6.16a89.73,89.73,0,0,0,9.09-22.93c2-8.21,2.25-16,1.53-20.34a127.88,127.88,0,0,1-2.18,17A94.38,94.38,0,0,1,270.16,157.11Z"/><path class="cls-1" d="M260.84,62.74a85.26,85.26,0,0,1,10.88,23.05,98.29,98.29,0,0,1,4.09,23.52,102.57,102.57,0,0,1-.93,21.3c-.45,4.73-1.62,8.58-2.17,12.13-.26-.24-.7,1.28-1.32,3.2s-1.3,4.28-1.77,5.78c-.09,1,.14,2.13.62,1.26a110.08,110.08,0,0,0,4.29-14.89c1-4.78,1.66-9.09,2.12-12.1a131.54,131.54,0,0,0-.24-25.41,76.35,76.35,0,0,0-7.28-25.48,65.17,65.17,0,0,0-9.35-15.87A111.31,111.31,0,0,0,246.9,45.61c-1.41-1-4.09-3.17-3.42-2A89.48,89.48,0,0,1,260.84,62.74Z"/><path class="cls-1" d="M258.61,63.4l.27-.19c-2.28-4-5.33-7.55-9.43-11.86l-3.67-2.89a19.24,19.24,0,0,0-3.25-2.11C248.63,51,253.8,56.94,258.61,63.4Z"/><path class="cls-1" d="M241.41,41.61c-3.2-2.12-5.89-4.31-8.89-5.71l5.21,3.53C239.77,40.82,241.52,42,241.41,41.61Z"/><path class="cls-1" d="M53.63,115.53c0,1.44,0,3.06.14,4.5a32.46,32.46,0,0,0,.3,3.41,15.82,15.82,0,0,0-.33,2.91c.18,0,.35,2.63.55,2.82-.73-5.89.24-1.24.08-4.81.12,1.81.29,2.09.47,3.79-.33-1.76-.31-.65-.13.94a22,22,0,0,0,.67,3.78,14.94,14.94,0,0,1-.3-2.83c.15,0,.32,1.18.47.89-1.1-5.2-1.51-13-1.25-20.89-.49-.86.05,2.49-.35,2.87-.18-1.53.27-7.64.66-6.69a84,84,0,0,1,3.18-17.15c1.52-5.27,3.34-10,5-14.42a50.5,50.5,0,0,0,5.08-10.42A85.62,85.62,0,0,0,60,80.53a136.74,136.74,0,0,0-4.44,15.1,80.73,80.73,0,0,1-1.31,8c-.31,1.55-.54,3.11-.7,4.54a20.92,20.92,0,0,0-.18,3.71C53.67,110.48,53.57,112.65,53.63,115.53Z"/><path class="cls-1" d="M56.15,134.67c-.3-.09-.58-.08-.21,2C56.55,138.53,56.4,136.57,56.15,134.67Z"/><path class="cls-1" d="M58.68,145.72c-.55-2.16-.1-1.79-.86-4.65C57.42,140.69,58,144.47,58.68,145.72Z"/><path class="cls-1" d="M64.4,161.89c-1.68-2.76-3-7.64-3.56-7.9C61.89,156.92,63.89,161.76,64.4,161.89Z"/><path class="cls-1" d="M70.47,171.69a53.8,53.8,0,0,0-3.4-4.69A21.53,21.53,0,0,0,70.47,171.69Z"/><path class="cls-1" d="M93.26,207.1h-.15l.25.12a6.93,6.93,0,0,0,2.37.58A12.43,12.43,0,0,0,93.26,207.1Z"/><path class="cls-1" d="M287.71,232.14v-2.22a16.93,16.93,0,0,0-.87-5.38c-.09,6-.18,11.46-.29,17.69-.41,2-.83,4.18-1.28,6.42a6.17,6.17,0,0,1-1.29,3,6.6,6.6,0,0,1-2.92,2l-3.58,1.05a17.68,17.68,0,0,1-4.47.45h-9.75c-3.64-.3-6.46-.71-7.25-1.36,2.44-.07,4.91-.11,7.39-.12h10.36a22.63,22.63,0,0,0,2.6-.24l2.29-.55a12.66,12.66,0,0,0,2.24-.63,5.27,5.27,0,0,0,2-1.39,6.65,6.65,0,0,0,1.11-2l.48-2.4.93-4.8c.08-2.94.15-5.85.23-8.71,0-1.21,0-2.41.05-3.6v-3.11c0-1.92-.16-2.71-.13-4.53.08-5.59.29-9.81.46-13.57.1-1.87.2-3.64.29-5.41,0-.89.1-1.77.14-2.68v-2a9.33,9.33,0,0,0-.48-2.45,8.3,8.3,0,0,0-2.12-3.31,8.4,8.4,0,0,0-5-2.17h-4.17a7.4,7.4,0,0,0-1.15.16,8.48,8.48,0,0,0-5.18,3.28,8.93,8.93,0,0,0-1.32,2.68l-.15.61-.05.25-.07.39-.12.78-.22,1.36a4.45,4.45,0,0,1-.15.81,8.31,8.31,0,0,1-1,2.54,7.22,7.22,0,0,1-1.71,1.94,23,23,0,0,1-8.8,4c-.85.2-1.75.38-2.62.53a23.4,23.4,0,0,1-2.52.28c-.89.06-1.83.1-2.81.13l-2.93.05c-.86,0-1.69-.13-2.5-.19a8,8,0,0,0-2.67.18c1,.06,2,.1,3.11.13s1.75.06,4.11,0a49.13,49.13,0,0,0,5-.29,26.16,26.16,0,0,0,4-.77,21.66,21.66,0,0,0,8.91-3.68,7.35,7.35,0,0,0,1.89-2,9,9,0,0,0,1.07-2.79c.06-.28.11-.57.15-.86l.24-1.5.13-.78v-.19l.05-.2.07-.29a7.35,7.35,0,0,1,.43-1.22,8,8,0,0,1,1.72-2.5,8.21,8.21,0,0,1,2.54-1.66,8.4,8.4,0,0,1,2.32-.58h4.05l.62.05a8.42,8.42,0,0,1,1.41.3,7.62,7.62,0,0,1,2.92,1.7,7.9,7.9,0,0,1,2,3.06,9.1,9.1,0,0,1,.46,2.31,10.14,10.14,0,0,1,0,1.35l-.05.67-.18,2.67c-.1,1.77-.2,3.5-.3,5.21-.18,3.43-.31,6.77-.43,10.13-.18,7.44-.35,14.93-.55,23.27-.28,1.65-.57,3.33-.86,5.05l-.22,1.29-.12.64c-.06.19-.12.38-.2.57a4.65,4.65,0,0,1-1.53,2.1,5.76,5.76,0,0,1-2.41,1l-2.63.56a29,29,0,0,1-6.17.32,18,18,0,0,0-4.27-.48l-5.51-.09c.28-.67-2.73-.94-7.24-1-2.52.17,1.57.46-.92.56-2.59-.2-5-.42-5.43-.9,2.41,0,5.17,0,6.35.12-.84-.54-6.38-.5-6.35-1.14l10-.22,10-.3,5.43-.18a19.31,19.31,0,0,0,2.57-.24c.83-.11,1.66-.17,2.48-.31a3,3,0,0,0,2.09-1.34,5.4,5.4,0,0,0,.52-2.5c.1-1.73.2-3.47.31-5.22q.06-3.4.12-6.87c.07-2.17.14-4.35.21-6.56.37-2.34.85-3.51,1.16-6.31-.43-1.91-.84,4.61-1.36,5.39-.21-4.42-.07-10.84-.2-15.54-.28.58-.59,1.15-.92,1.7,0-.95.05-1.9.08-2.86a23.75,23.75,0,0,0,1.13-3.05,15.57,15.57,0,0,1-.39,1.53c.05.77.09,1.65.11,2.59a21.86,21.86,0,0,0,.94-2.17,26.52,26.52,0,0,0,1.42-5.76l.19-1.37v-.13l-.51-.11-1.45-.3v-1a4.39,4.39,0,0,0-.18-1.25,2.5,2.5,0,0,0-2.4-1.84h-2.69a4.16,4.16,0,0,0-1.11.13,2.82,2.82,0,0,0-2,1.9,4.61,4.61,0,0,0-.17.9l-.79,0h0l.79,0a0,0,0,0,0,0,0h0l-.11.8a21.22,21.22,0,0,1-.75,3.71v-4.55h-1.25v1.37l-.18,6.44a12.24,12.24,0,0,0,.67-1.23,14,14,0,0,0,.75-2h0v2.92a13.4,13.4,0,0,1-1.42,2.08v-1.82a12.67,12.67,0,0,1-2.73,3.11,29.94,29.94,0,0,1-13.51,6,45.22,45.22,0,0,1-7.34.75c-2.5.09-4.82.13-7.2.18l-14.15.25c-4.73,0-9.49.09-14.5.07-1.25,0-2.53,0-3.81-.1a2.39,2.39,0,0,1-1.67-.88,3.18,3.18,0,0,1-.5-1.83c0-1.28-.08-2.58-.12-3.89a4.82,4.82,0,0,1,1.09-3.68A2.81,2.81,0,0,1,207,206a20.26,20.26,0,0,0,2-.79,111.24,111.24,0,0,0,16.4-7.1c3.63-1.93,7-4,9.87-5.81,3.07-2,5.68-3.77,7.6-4.83,4.26-4,5.54-4.8,8.23-7.53,1.09-1.37,2.11-2.7,3.42-4.43,1.63-1.3,5.1-6.58,7.47-10.69,2.67-4.55,5-8.15,7-13.26a58.19,58.19,0,0,0,3.11-10.43,64.48,64.48,0,0,0,.95-6.93c.25-2.68.54-6,.55-9.1a38.27,38.27,0,0,0-.53-7.63c-.16,1.58-.37,3.26-.62,4.6.22,6,.41,13.06-1.71,21.19-1.38,5.1-3.11,8-5,13.05l-.31-.13a71.5,71.5,0,0,1-18,25.32,95.72,95.72,0,0,1-10.7,8.45c-1.14.77-2.33,1.54-3.55,2.31a91.93,91.93,0,0,0,9.51-7.53,87.15,87.15,0,0,0,20.47-27.91c6.42-13.88,8.55-28.53,7.87-43.68a105.76,105.76,0,0,0-2.85-20.5,80,80,0,0,0-30.36-46,119.43,119.43,0,0,0-22.54-13,116.9,116.9,0,0,0-71-8.77,135.61,135.61,0,0,0-33.89,10.94c-15,7.18-27.48,17.39-36.6,31.5a88.61,88.61,0,0,0-14,58.45,111.3,111.3,0,0,0,5.16,24,79.49,79.49,0,0,0,22.5,34.69,100.84,100.84,0,0,0,28.61,17.82c2.13.9,4.25,1.83,6.34,2.82.39.22.73.43,1.06.64a5.26,5.26,0,0,1,1,1,5.38,5.38,0,0,1,1,3.29,19.07,19.07,0,0,1-.73,4.18,4.68,4.68,0,0,1-.34,1.1,1.59,1.59,0,0,1-1,.81,9.33,9.33,0,0,1-2.79.12c-5.32.26-9.9.73-14.36,1.28h-.18c-6.27-.06-12.54-.16-18.8-.23a60.83,60.83,0,0,1-16.67-2.64A18.27,18.27,0,0,1,60,207a19.33,19.33,0,0,1-2.68-8c-.17-1.32-.73-1.9-1.88-2a20.51,20.51,0,0,0-2.6,0,1.32,1.32,0,0,0-1.42,1.21h0a7,7,0,0,0-.13,1.2c0,2.39.1,4.79.17,7.18.21,8.13.44,16.25.64,24.38.11,4.47.16,8.94.3,13.41.07,2.23.83,2.91,3.06,2.91,1.79,0,3.58-.05,5.37-.05H127.3c1.62.21,3.5.41,6,.57-1.71.22,0,.29.18.57a59.73,59.73,0,0,0,6.69-.19,11.78,11.78,0,0,0,2.64-.33c.69-.18,1.1-.46,1.26-.45a5.34,5.34,0,0,1-3.18,1.05c-1,.11-1.87.26-2.71.34l-4.4.37-4.11.34-2.24.14-2.47.08c-8.06,1.07-5,2.83-10.87,3.73a32.82,32.82,0,0,0-5.43-.11c-1.54.75,1.89,1-2.72,1.46,1.62.46,4,.39,7.25.45,1.35.61,4.35,1,8,1.32,1.83.16,3.82.29,5.85.43l1.56.09,2.6.1,5.2.2,4.1-.17a14.75,14.75,0,0,0,3.61-.67c2-.84,4.13-1.26,5.74-2.72a8.49,8.49,0,0,0,2-2.5c.11-.21.21-.43.31-.64a5,5,0,0,0,.17-.77l.3-1.57c.41-2.08.81-4.13,1.22-6.15-.35-8.84-.66-17-1-25.08-.16-3.29-.34-6.59-.56-10-.09-1.21-.18-2.42-.26-3.64a44.64,44.64,0,0,0-.48-4.62,17.53,17.53,0,0,0-1.35-4.23,13.62,13.62,0,0,0-2.7-3.65,3.52,3.52,0,0,0-1.29-1.56,19.88,19.88,0,0,0-3.63-2.54L141,186l-.84-.44-.66-.38-1.48-.86-2.69-1.59c-.9-1,.11-1-1.64-2.55-1.69-1,.17.79.06,1.06a28.88,28.88,0,0,1-4.37-3.59,21.59,21.59,0,0,1-3.32-4,37.55,37.55,0,0,1-5.76-8.11c-1.9-3.41-3.56-7.3-5-10.51-.44-2.7-1.36-6.37-2.5-11.89-.41,0-.9-1.16-1.35-2.2a72.76,72.76,0,0,1-1.55-19.69c.3-6,1-11.91,2-19.67,1.09-4.13,2.47-10.35,4.71-16.53,3.4-7.53,8.18-16.19,15.07-23.45a47.82,47.82,0,0,1,11.1-8.88,46.63,46.63,0,0,1,12.94-5c2.59.14,5.95-.1,9.55-.08a50.59,50.59,0,0,1,10.63,1,41.07,41.07,0,0,1,13.34,5.6,60,60,0,0,1,10.94,9.37c.73.93.49.12,1.16.92a75.75,75.75,0,0,1,7,11.28c1.14,2.2,2.33,4.69,3.32,6.94s1.92,4.61,2.66,6.87c2.18,6.44,3.2,12.88,4.21,19.53,1.14,7.75,1.46,13.73,2.15,18.56-.23,3.11-.27,6.46-.56,9.82a42.64,42.64,0,0,1-1.87,9.95c-.17,1.24.24,1.07-.38,3.33a10.13,10.13,0,0,1-.89,2.31c.42,0,.57-.79.64.2a72.28,72.28,0,0,0,2-10.72,28.77,28.77,0,0,0,.74-3.31,121.44,121.44,0,0,0-1.08-31,119.32,119.32,0,0,0-3.67-16.17,65.1,65.1,0,0,0-5.47-13c-.77-1.74-.06-1.2-.55-2.49-2.23-3.64-3.48-7.1-6.27-10.81a56,56,0,0,0-6.63-6.62,53.1,53.1,0,0,0-7.28-5.65,34.61,34.61,0,0,0-9.27-4.09q-.67-.33-1.38-.6c-.54-.18-1.13-.35-1.74-.53-1.29-.34-2.76-.61-4.1-.82-2.7-.44-5-.6-5.28-1,1.75-.34,5.38.88,7.66.83a29.22,29.22,0,0,1-3.78-1l5.31.1c1.56.06,3,.11,4.44.24A28.28,28.28,0,0,1,192,49.85a52.54,52.54,0,0,1,8.69,6.51,76,76,0,0,1,6,6.17,78.25,78.25,0,0,1,5.65,9.65,122.32,122.32,0,0,1,5,11.37,106.41,106.41,0,0,1,6.35,25.13,110.84,110.84,0,0,1,.15,26q-.36,3.16-.87,6.22c-.34,2.08-.72,4.13-1.13,6.11A109.68,109.68,0,0,1,219,158.16a92.79,92.79,0,0,1-4.24,9.24,69,69,0,0,1-5.84,9.35,114.36,114.36,0,0,1-10.31,9.11c-1.1.8-2.21,1.63-3.41,2.37l-.89.58L194,189l-.36.2-.73.4c-1,.56-1.94,1-2.91,1.66l-2.89,1.92a7.27,7.27,0,0,0-2.23,2.51,10.11,10.11,0,0,0-1.12,3.1,22.75,22.75,0,0,0-.48,3.28c-.13,1.75-.25,3.45-.36,5.08-.1,1.18-.19,2.31-.27,3.37-.19,2.12-.4,4-.65,5.49.4,2.36.17,7.28-.26,12.2-.3,3.09-.61,6.18-.87,8.89-.19,1.61-.35,3.12-.45,4.43s-.21,2.47-.22,3.33c.27.5.46,1.54.84,2.64q.32.81.63,1.8a5.88,5.88,0,0,0,.84,2,4.63,4.63,0,0,0,2,1.18c.73.28,1.4.64,2.18.88a21.22,21.22,0,0,0,4.93.91c-.1.25-5.68-.13-.16.33a21.43,21.43,0,0,0,4.16-.14,57.24,57.24,0,0,1,6.78.8c3.36.08,3.89-.19,7.25-.11a13.46,13.46,0,0,1-3.62.56c-2.51.08-3.52,0-5.64-.07-1.75-.09-3-.21-5-.27.08.28,2.67.35-1.59.45a7.94,7.94,0,0,0-2.16-.36,28.21,28.21,0,0,1-3.31-.26,15.51,15.51,0,0,1-3.14-.78,12.31,12.31,0,0,1-2.11-1.22c.92.4,1.76.76,2.46,1a9.82,9.82,0,0,0,1.86.34c-.57-.14-1.16-.27-1.72-.44l-1.56-.63-1.58-.65a3.41,3.41,0,0,1-1.32-1.29,22.83,22.83,0,0,1-1.92-6.26c.14,1.37.46,3.11,0,1.31a17.87,17.87,0,0,0,1,3.66A14,14,0,0,0,181,252a3.49,3.49,0,0,0,1.37,1.35c1.07.51,2.07,1.09,3.2,1.55a19,19,0,0,0,4,.93c3,.28,6.12.29,9.24.33l7.13.12c7.61.13,15.09.17,22.56.17l22.49-.12,11.44-.1,8.08-.05c1.57,0,3.15,0,4.7-.12a20.4,20.4,0,0,0,2.2-.3c.66-.17,1.27-.4,1.91-.59s1.3-.28,2.11-.48a6.75,6.75,0,0,0,2.43-1.24,7.54,7.54,0,0,0,2-2.42,6.43,6.43,0,0,0,.49-1.54c.13-.55.27-1.09.41-1.64l1-5v-7.43C287.73,234.23,287.72,233.16,287.71,232.14Zm-6.1-32v.47l-.07.5c-.09.56-.17,1.12-.26,1.68s-.27,1.41-.46,2.13c-.05.16-.12.35-.17.52v0a14.38,14.38,0,0,0,.1-1.74c.05-1.25.1-2.46.15-3.65v-.08Zm-141.23-2.5h0a4.31,4.31,0,0,1,1.36,1.69,10.21,10.21,0,0,1,.63,2.56c.15.94.26,1.93.36,2.91s.18,1.86.27,2.72c.14,1.55.23,2.85.26,3.55.11,2.83,0,7.63-.65,4.6a82.78,82.78,0,0,1-.74-8.76c-.12-2-.22-4-.45-5.91a4.83,4.83,0,0,0-1-2.49,4.64,4.64,0,0,0-1.92-1.38C138.52,196.82,139.34,196.87,140.38,197.59ZM99.11,126.72c-.06-1.68-.06-3.36,0-5,.06.81.13,1.59.22,2.29,0,2.43,0,5,.08,7.57C99.25,129.93,99.16,128.33,99.11,126.72Zm2.55,9.68c-.19-.68-.36-.93-.55-.84C100.66,131.63,101.37,132.44,101.66,136.4ZM103,147.94a65.87,65.87,0,0,1-1.43-6.52c-.34-2.16-.46-3.92-.16-4.1.86,4.34,1,6,1.92,10.54Zm1.71,7c-.16-1.19-.85-3.8-.7-4.45.9,3,.76,3.35,1.68,6C105.59,157.2,104.92,154.86,104.71,154.91Zm2.72,10.17c0-.2-.06-.4-.08-.57.77,1.9,1.44,3.46,2.08,4.86C108.73,168,108.08,166.53,107.43,165.08Zm35.36-116h0c-1.69,1-3.29,2.22-5.45,3.51-2.42,2.58-4.69,5.16-7.62,8.8A95.77,95.77,0,0,0,119.5,76.71a85.53,85.53,0,0,0-4.7,9.44c-2.37,6-3.28,12.76-4.49,16-.57-1.23.07-6.31,1.39-11.62s3.37-10.88,4.14-13.75c1.13-2.47,1.36-2,2.23-3.51a44.35,44.35,0,0,1,6.45-9.37c1.31-1.64,3-3.71,5-5.78A48.28,48.28,0,0,1,136,52.31a38.25,38.25,0,0,1,7-4.14,23.22,23.22,0,0,1,5.58-1.76A20.24,20.24,0,0,0,142.79,49.05Zm18.66-8.87h0c-2.72.39-5,1-4.21,1.77a49.79,49.79,0,0,0-23.56,9.59,48.76,48.76,0,0,0-8.42,8.26,53.11,53.11,0,0,0-6.45,10.1,97.56,97.56,0,0,0-11.73,32.56,163.88,163.88,0,0,0-2.16,20c-.32,5.85-.37,10.49-1.12,12.78.24-1.13-.38-4.24-.4-6.09-.06-3.57.42-5.72.54-8.71.13-2.75.12-4.67.15-6.8a56.42,56.42,0,0,1,.66-8c.33-2.23-.2-1.46-.15-2.7a105.8,105.8,0,0,1,5.87-23.78,74.41,74.41,0,0,1,12-21,51.36,51.36,0,0,1,19.47-15,55.27,55.27,0,0,1,26.14-4C167.27,39.7,164.16,39.78,161.45,40.18Z"/><path class="cls-1" d="M282.34,200.24Z"/><path class="cls-1" d="M208.58,172.73c-.61.73-1.36,1.77-2.22,2.76-1.66,2-3.61,4-4.06,4.77a48.56,48.56,0,0,0,7.32-8.79A7.83,7.83,0,0,0,208.58,172.73Z"/><path class="cls-1" d="M214.58,161.42a32.93,32.93,0,0,1-3.23,6.58,33.29,33.29,0,0,1-1.7,3.44c.51-.78,1-1.55,1.48-2.36a65.6,65.6,0,0,0,6-14.14C216.42,156.26,215.59,158.84,214.58,161.42Z"/><path class="cls-1" d="M196.46,185.15c.54-.78,3.21-2.92,3.71-3.87-1.92,1.61-1.74,1.94-4,3.5C197.21,184.4,194.81,186.25,196.46,185.15Z"/><path class="cls-1" d="M60.21,152.18a82.79,82.79,0,0,1-3.55-11.41c-1-4.23-1.77-8.35-2.36-10.62C55.54,137.33,57.56,146.55,60.21,152.18Z"/></svg>