<svg xmlns="http://www.w3.org/2000/svg" viewBox="0 0 871.57 207.7"><defs><style>.cls-1{isolation:isolate;}.cls-2{fill:#272525;}.cls-3{mix-blend-mode:multiply;}.cls-4{fill:none;stroke:#272525;stroke-width:0.5px;}</style></defs><title>STSculptors_CleanLogo</title><g class="cls-1"><g id="Layer_1" data-name="Layer 1"><path class="cls-2" d="M78.13,149.85l-3.56-17.77h3.56q4.65,6.55,9.71,8.75T101.1,143a11.47,11.47,0,0,0,9.43-4.24q3.42-4.25,3.42-12.72,0-7.38-3.56-10.94t-11.75-6.56a32.47,32.47,0,0,1-14.91-10q-5.88-7-5.87-18.18,0-10.4,6.56-16.82t16.68-6.42a22.15,22.15,0,0,1,7,.82A32.69,32.69,0,0,1,114,61a5.67,5.67,0,0,0,2.6,1,1.49,1.49,0,0,0,1.09-.41,2,2,0,0,0,.48-1.43,9.37,9.37,0,0,0-.62-2.94h4.11l3,14.21h-3.83q-6.56-5.46-9.16-6.42T101.1,64a9.08,9.08,0,0,0-7.66,4.24,16.4,16.4,0,0,0-3,9.71,17,17,0,0,0,3.69,10.93q3.7,4.65,12.45,8.21a52.79,52.79,0,0,1,13.67,8.47q7.38,6,7.38,17.78,0,12.86-8.07,19.69a27.75,27.75,0,0,1-18.45,6.83,45.47,45.47,0,0,1-7.93-.55,16.9,16.9,0,0,1-5.74-2.18,6.41,6.41,0,0,0-3.15-1.3,1.3,1.3,0,0,0-1,.34,3.36,3.36,0,0,0-.88,2.67,9.26,9.26,0,0,0,.06,1Z"/><path class="cls-2" d="M141.29,103.64q0-18.6,9-31.85t26.52-14.63c1.69-.09,3.3-.14,4.85-.14a57.55,57.55,0,0,1,10.87,1q7,1.37,9.44,3.28a5.17,5.17,0,0,0,2.39.82,1.39,1.39,0,0,0,1-.41,4.37,4.37,0,0,0,.76-3c0-.46,0-1-.07-1.5h4.37l6.84,24.06h-4.1q-8.21-12-16.55-15.45a33.86,33.86,0,0,0-13-2.32A56.22,56.22,0,0,0,176,64q-10.94,2.19-16.82,17.09-4.57,11.63-4.58,21.33a42.24,42.24,0,0,0,.34,5.33q1.38,15.58,7.11,24.88T180.94,143q12.85-.56,20.92-6.29t11.35-17.5h4.1q-3.28,15.58-13.26,23.1t-27.21,7.52q-15,0-25.29-11.89T141.29,103.64Z"/><path class="cls-2" d="M305.35,57.16v3.55c-2.36,0-4.05.37-5.05,1.09s-2.05,2.37-3.15,4.93L266,149.85h-4.1L233.71,66.73q-1.08-3.84-2.87-4.93a10.43,10.43,0,0,0-5.33-1.09V57.16h30.08v3.55a17.24,17.24,0,0,0-7,1.09A2.78,2.78,0,0,0,247,64.54a8.25,8.25,0,0,0,.35,2.19l20.5,61.52,22.43-61.52a7.61,7.61,0,0,0,.47-2.4,2.52,2.52,0,0,0-1.57-2.53,18.31,18.31,0,0,0-7.11-1.09V57.16Z"/><path class="cls-2" d="M308.09,149.85V146.3q4.65,0,6.42-1.23c1.19-.82,1.78-2.24,1.78-4.24V66.73q0-3.84-1.78-4.93c-1.18-.72-3.32-1.09-6.42-1.09V57.16h30.08v3.55c-3.1,0-5.24.37-6.43,1.09S330,64.17,330,66.73V143h29q7.38,0,11.89-4t6.43-11.35h4.37l-5.19,22.15Z"/><path class="cls-2" d="M388.75,149.85V146.3q4.65,0,6.43-1.23c1.18-.82,1.78-2.24,1.78-4.24V66.73c0-2.56-.6-4.2-1.78-4.93s-3.33-1.09-6.43-1.09V57.16h30.08q13.95,0,23,4.78t9,20.1q0,14-8.06,19.41A32.55,32.55,0,0,1,424,106.92h-13.4v33.91c0,2,.59,3.42,1.78,4.24s3.32,1.23,6.42,1.23v3.55Zm21.88-49.76h12q7.93,0,11.07-4.38t3.15-15.31q0-10.12-4-13.26T419.65,64h-9Z"/><path class="cls-2" d="M487.19,149.85V146.3q4.65,0,6.43-1.23c1.18-.82,1.77-2.24,1.77-4.24V64H476.25c-3.28,0-5.83.69-7.65,2.05s-3.38,3.79-4.65,7.25h-4.1l5.74-16.13h73.55l5.75,16.13h-4.11q-1.9-5.19-4.64-7.25c-1.83-1.36-4.47-2.05-7.93-2.05H509.07v76.84c0,2,.59,3.42,1.77,4.24s3.33,1.23,6.43,1.23v3.55Z"/><path class="cls-2" d="M600.12,57.16a44.89,44.89,0,0,1,32.78,13.6q13.71,13.6,13.71,32.33T632.9,135.84q-13.71,14-32.78,14a43.6,43.6,0,0,1-32.88-14q-13.34-14-13.33-32.75,0-19.34,13.33-32.64T600.12,57.16ZM597.39,64q-12.32,1.37-21.61,12.44-8.34,9.91-8.33,26.05c0,1.27,0,2.57.13,3.89a43.69,43.69,0,0,0,10.8,25.71q9.43,10.66,24.48,10.94,14.76-1.1,22.69-11.76,7.46-10,7.45-27.82c0-.82,0-1.67-.07-2.53a44.63,44.63,0,0,0-11.21-26.39Q612.36,64,598.75,64ZM577.7,89.7h3.55a7.19,7.19,0,0,0,1.64,5q1.65,1.78,5.2,1.78h24.06q3.83-.27,5.33-1.78t1.51-5h3.55V117H619a7.29,7.29,0,0,0-1.64-4.92q-1.65-1.92-5.2-1.92H588.09c-2.37,0-4.06.6-5.06,1.78a8.88,8.88,0,0,0-1.78,5.06H577.7Z"/><path class="cls-2" d="M654.81,149.85V146.3q4.65,0,6.42-1.23c1.19-.82,1.78-2.24,1.78-4.24V66.73q0-3.84-1.78-4.93c-1.18-.72-3.32-1.09-6.42-1.09V57.16h30.08q13.93,0,23,4.78t9,20.1q0,14-7.11,19.55-6.76,5.32-11.62,5.33h-.41l11.76,15.31,9-12h7.66l-12.86,17.5,11.49,13.67a28,28,0,0,0,4.65,3.56,14.52,14.52,0,0,0,6,1.37v3.55H706.21V146.3c2.56,0,4.24-.46,5.06-1.37a1.9,1.9,0,0,0,.48-1.3,5.2,5.2,0,0,0-1.16-2.8l-3.56-5.2-10.11,14.22h-6.56l12.57-18.59-18.86-24.34h-7.39v33.91c0,2,.6,3.42,1.78,4.24s3.33,1.23,6.43,1.23v3.55Zm21.87-49.76h12q7.93,0,11.08-4.38t3.14-15.31q0-10.12-4-13.26T685.71,64h-9Z"/><path class="cls-2" d="M747.5,149.85,744,132.08h3.55q4.65,6.55,9.71,8.75T770.47,143a11.49,11.49,0,0,0,9.44-4.24q3.4-4.25,3.41-12.72,0-7.38-3.55-10.94T768,108.56a32.49,32.49,0,0,1-14.9-10q-5.88-7-5.88-18.18,0-10.4,6.56-16.82t16.68-6.42a22.23,22.23,0,0,1,7,.82,33,33,0,0,1,5.87,3,5.71,5.71,0,0,0,2.6,1,1.51,1.51,0,0,0,1.1-.41,2,2,0,0,0,.47-1.43,9.32,9.32,0,0,0-.61-2.94H791l3,14.21h-3.83Q783.59,65.91,781,65t-10.53-1a9.05,9.05,0,0,0-7.65,4.24,16.33,16.33,0,0,0-3,9.71,17,17,0,0,0,3.69,10.93q3.69,4.65,12.44,8.21a52.79,52.79,0,0,1,13.67,8.47q7.38,6,7.39,17.78,0,12.86-8.07,19.69a27.78,27.78,0,0,1-18.46,6.83,45.55,45.55,0,0,1-7.93-.55,17,17,0,0,1-5.74-2.18,6.38,6.38,0,0,0-3.14-1.3,1.3,1.3,0,0,0-1,.34,3.36,3.36,0,0,0-.89,2.67,7.39,7.39,0,0,0,.07,1Z"/><g class="cls-3"><path class="cls-4" d="M78.13,149.85l-3.56-17.77h3.56q4.65,6.55,9.71,8.75T101.1,143a11.47,11.47,0,0,0,9.43-4.24q3.42-4.25,3.42-12.72,0-7.38-3.56-10.94t-11.75-6.56a32.47,32.47,0,0,1-14.91-10q-5.88-7-5.87-18.18,0-10.4,6.56-16.82t16.68-6.42a22.15,22.15,0,0,1,7,.82A32.69,32.69,0,0,1,114,61a5.67,5.67,0,0,0,2.6,1,1.49,1.49,0,0,0,1.09-.41,2,2,0,0,0,.48-1.43,9.37,9.37,0,0,0-.62-2.94h4.11l3,14.21h-3.83q-6.56-5.46-9.16-6.42T101.1,64a9.08,9.08,0,0,0-7.66,4.24,16.4,16.4,0,0,0-3,9.71,17,17,0,0,0,3.69,10.93q3.7,4.65,12.45,8.21a52.79,52.79,0,0,1,13.67,8.47q7.38,6,7.38,17.78,0,12.86-8.07,19.69a27.75,27.75,0,0,1-18.45,6.83,45.47,45.47,0,0,1-7.93-.55,16.9,16.9,0,0,1-5.74-2.18,6.41,6.41,0,0,0-3.15-1.3,1.3,1.3,0,0,0-1,.34,3.36,3.36,0,0,0-.88,2.67,9.26,9.26,0,0,0,.06,1Z"/><path class="cls-4" d="M141.29,103.64q0-18.6,9-31.85t26.52-14.63c1.69-.09,3.3-.14,4.85-.14a57.55,57.55,0,0,1,10.87,1q7,1.37,9.44,3.28a5.17,5.17,0,0,0,2.39.82,1.39,1.39,0,0,0,1-.41,4.37,4.37,0,0,0,.76-3c0-.46,0-1-.07-1.5h4.37l6.84,24.06h-4.1q-8.21-12-16.55-15.45a33.86,33.86,0,0,0-13-2.32A56.22,56.22,0,0,0,176,64q-10.94,2.19-16.82,17.09-4.57,11.63-4.58,21.33a42.24,42.24,0,0,0,.34,5.33q1.38,15.58,7.11,24.88T180.94,143q12.85-.56,20.92-6.29t11.35-17.5h4.1q-3.28,15.58-13.26,23.1t-27.21,7.52q-15,0-25.29-11.89T141.29,103.64Z"/><path class="cls-4" d="M305.35,57.16v3.55c-2.36,0-4.05.37-5.05,1.09s-2.05,2.37-3.15,4.93L266,149.85h-4.1L233.71,66.73q-1.08-3.84-2.87-4.93a10.43,10.43,0,0,0-5.33-1.09V57.16h30.08v3.55a17.24,17.24,0,0,0-7,1.09A2.78,2.78,0,0,0,247,64.54a8.25,8.25,0,0,0,.35,2.19l20.5,61.52,22.43-61.52a7.61,7.61,0,0,0,.47-2.4,2.52,2.52,0,0,0-1.57-2.53,18.31,18.31,0,0,0-7.11-1.09V57.16Z"/><path class="cls-4" d="M308.09,149.85V146.3q4.65,0,6.42-1.23c1.19-.82,1.78-2.24,1.78-4.24V66.73q0-3.84-1.78-4.93c-1.18-.72-3.32-1.09-6.42-1.09V57.16h30.08v3.55c-3.1,0-5.24.37-6.43,1.09S330,64.17,330,66.73V143h29q7.38,0,11.89-4t6.43-11.35h4.37l-5.19,22.15Z"/><path class="cls-4" d="M388.75,149.85V146.3q4.65,0,6.43-1.23c1.18-.82,1.78-2.24,1.78-4.24V66.73c0-2.56-.6-4.2-1.78-4.93s-3.33-1.09-6.43-1.09V57.16h30.08q13.95,0,23,4.78t9,20.1q0,14-8.06,19.41A32.55,32.55,0,0,1,424,106.92h-13.4v33.91c0,2,.59,3.42,1.78,4.24s3.32,1.23,6.42,1.23v3.55Zm21.88-49.76h12q7.93,0,11.07-4.38t3.15-15.31q0-10.12-4-13.26T419.65,64h-9Z"/><path class="cls-4" d="M487.19,149.85V146.3q4.65,0,6.43-1.23c1.18-.82,1.77-2.24,1.77-4.24V64H476.25c-3.28,0-5.83.69-7.65,2.05s-3.38,3.79-4.65,7.25h-4.1l5.74-16.13h73.55l5.75,16.13h-4.11q-1.9-5.19-4.64-7.25c-1.83-1.36-4.47-2.05-7.93-2.05H509.07v76.84c0,2,.59,3.42,1.77,4.24s3.33,1.23,6.43,1.23v3.55Z"/><path class="cls-4" d="M600.12,57.16a44.89,44.89,0,0,1,32.78,13.6q13.71,13.6,13.71,32.33T632.9,135.84q-13.71,14-32.78,14a43.6,43.6,0,0,1-32.88-14q-13.34-14-13.33-32.75,0-19.34,13.33-32.64T600.12,57.16ZM597.39,64q-12.32,1.37-21.61,12.44-8.34,9.91-8.33,26.05c0,1.27,0,2.57.13,3.89a43.69,43.69,0,0,0,10.8,25.71q9.43,10.66,24.48,10.94,14.76-1.1,22.69-11.76,7.46-10,7.45-27.82c0-.82,0-1.67-.07-2.53a44.63,44.63,0,0,0-11.21-26.39Q612.36,64,598.75,64ZM577.7,89.7h3.55a7.19,7.19,0,0,0,1.64,5q1.65,1.78,5.2,1.78h24.06q3.83-.27,5.33-1.78t1.51-5h3.55V117H619a7.29,7.29,0,0,0-1.64-4.92q-1.65-1.92-5.2-1.92H588.09c-2.37,0-4.06.6-5.06,1.78a8.88,8.88,0,0,0-1.78,5.06H577.7Z"/><path class="cls-4" d="M654.81,149.85V146.3q4.65,0,6.42-1.23c1.19-.82,1.78-2.24,1.78-4.24V66.73q0-3.84-1.78-4.93c-1.18-.72-3.32-1.09-6.42-1.09V57.16h30.08q13.93,0,23,4.78t9,20.1q0,14-7.11,19.55-6.76,5.32-11.62,5.33h-.41l11.76,15.31,9-12h7.66l-12.86,17.5,11.49,13.67a28,28,0,0,0,4.65,3.56,14.52,14.52,0,0,0,6,1.37v3.55H706.21V146.3c2.56,0,4.24-.46,5.06-1.37a1.9,1.9,0,0,0,.48-1.3,5.2,5.2,0,0,0-1.16-2.8l-3.56-5.2-10.11,14.22h-6.56l12.57-18.59-18.86-24.34h-7.39v33.91c0,2,.6,3.42,1.78,4.24s3.33,1.23,6.43,1.23v3.55Zm21.87-49.76h12q7.93,0,11.08-4.38t3.14-15.31q0-10.12-4-13.26T685.71,64h-9Z"/><path class="cls-4" d="M747.5,149.85,744,132.08h3.55q4.65,6.55,9.71,8.75T770.47,143a11.49,11.49,0,0,0,9.44-4.24q3.4-4.25,3.41-12.72,0-7.38-3.55-10.94T768,108.56a32.49,32.49,0,0,1-14.9-10q-5.88-7-5.88-18.18,0-10.4,6.56-16.82t16.68-6.42a22.23,22.23,0,0,1,7,.82,33,33,0,0,1,5.87,3,5.71,5.71,0,0,0,2.6,1,1.51,1.51,0,0,0,1.1-.41,2,2,0,0,0,.47-1.43,9.32,9.32,0,0,0-.61-2.94H791l3,14.21h-3.83Q783.59,65.91,781,65t-10.53-1a9.05,9.05,0,0,0-7.65,4.24,16.33,16.33,0,0,0-3,9.71,17,17,0,0,0,3.69,10.93q3.69,4.65,12.44,8.21a52.79,52.79,0,0,1,13.67,8.47q7.38,6,7.39,17.78,0,12.86-8.07,19.69a27.78,27.78,0,0,1-18.46,6.83,45.55,45.55,0,0,1-7.93-.55,17,17,0,0,1-5.74-2.18,6.38,6.38,0,0,0-3.14-1.3,1.3,1.3,0,0,0-1,.34,3.36,3.36,0,0,0-.89,2.67,7.39,7.39,0,0,0,.07,1Z"/></g></g></g></svg>